<?xml version="1.0" encoding="utf-8"?>
<!-- Svg Vector Icons : http://www.onlinewebfonts.com/icon -->
<!DOCTYPE svg PUBLIC "-//W3C//DTD SVG 1.1//EN" "http://www.w3.org/Graphics/SVG/1.1/DTD/svg11.dtd">
<svg version="1.1" xmlns="http://www.w3.org/2000/svg" xmlns:xlink="http://www.w3.org/1999/xlink" x="0px" y="0px" viewBox="0 0 1000 1000" enable-background="new 0 0 1000 1000" xml:space="preserve">
<metadata> Svg Vector Icons : http://www.onlinewebfonts.com/icon </metadata>
<g><path d="M990,785.9c0,32.5-19.3,60.4-46.9,73.4c-2.9,3-6.4,5.6-10.5,7.3L617.1,990.5l-54.9,0.2c-0.2,0-0.5,0.1-0.7,0.1h-91.9c-16.9,0-30.6-13.7-30.6-30.6v-30.6c0-16.9,13.7-30.6,30.6-30.6h91.9c16.9,0,30.6,13.7,30.6,30.6v5l196.7-77.2c-25.5-13.7-43.2-40.4-43.2-71.4V581.3c0-44.9,36.5-81.4,81.4-81.4h81.6c6.3,0,12.5,0.9,18.4,2.3c-1.1-23.2-2.4-46.3-3.4-55.4C899.2,228.8,722.3,70.5,502.8,70.5c-228.6,0-414.3,176.7-426.9,411c-0.1,2.4-0.5,10.2-1,20.2c5.3-1.1,10.8-1.7,16.5-1.7H174c44.9,0,81.4,36.5,81.4,81.4v205.5c0,44.9-36.5,81.4-81.4,81.4H91.4c-44.9,0-81.4-36.5-81.4-81.4V581.3c0-6,0.8-11.9,2-17.6l0.1-13.7c0.2-24.7,2.3-66.1,2.6-71.9c14.4-267.4,226.4-469,488.1-469C754,9.2,956.6,190.4,984.5,440c2.4,21.8,5.6,97.8,5.5,118c0,3.1-0.6,6-1.5,8.8c0.9,4.7,1.5,9.6,1.5,14.6V785.9z M71.3,786.8c0,11.1,9,20.1,20.1,20.1H174c11.1,0,20.1-9,20.1-20.1V581.3c0-11.1-9-20.1-20.1-20.1H91.4c-11.1,0-20.1,9-20.1,20.1V786.8z M928.7,581.3c0-11.1-9-20.1-20.1-20.1h-81.6c-11.1,0-20.1,9-20.1,20.1v204.5c0,11.1,9,20.1,20.1,20.1h81.6c11.1,0,20.1-9,20.1-20.1V581.3z"/></g>
</svg>