<?xml version="1.0" encoding="utf-8"?>
<!-- Svg Vector Icons : http://www.onlinewebfonts.com/icon -->
<!DOCTYPE svg PUBLIC "-//W3C//DTD SVG 1.1//EN" "http://www.w3.org/Graphics/SVG/1.1/DTD/svg11.dtd">
<svg version="1.1" xmlns="http://www.w3.org/2000/svg" xmlns:xlink="http://www.w3.org/1999/xlink" x="0px" y="0px" viewBox="0 0 1000 1000" enable-background="new 0 0 1000 1000" xml:space="preserve">
<metadata> Svg Vector Icons : http://www.onlinewebfonts.com/icon </metadata>
<g><path d="M816.5,132.5H650.1C636,62.7,574.1,10,500,10c-74.1,0-136,52.7-150.1,122.5H183.5c-45.1,0-81.7,36.5-81.7,81.7v694.2c0,45.1,36.5,81.7,81.7,81.7h632.9c45.1,0,81.7-36.5,81.7-81.7V214.2C898.1,169,861.6,132.5,816.5,132.5z M500,112.1c28.2,0,51,22.9,51,51c0,28.2-22.9,51-51,51c-28.2,0-51-22.9-51-51C449,135,471.8,112.1,500,112.1z M796,843c0,24.9-20,44.9-44.9,44.9H248.9c-24.9,0-44.9-20-44.9-44.9V279.5c0-24.9,20-44.9,44.9-44.9h98v36.8c0,24.9,20,44.9,44.9,44.9h216.4c24.9,0,44.9-20,44.9-44.9v-36.8h98c24.9,0,44.9,20,44.9,44.9V843z M642.9,683.8H357.1c-28.2,0-51,22.9-51,51c0,28.2,22.9,51,51,51h285.8c28.2,0,51-22.9,51-51C694,706.6,671.1,683.8,642.9,683.8z M642.9,500H357.1c-28.2,0-51,22.9-51,51c0,28.2,22.9,51,51,51h285.8c28.2,0,51-22.9,51-51C694,522.9,671.1,500,642.9,500z"/></g>
</svg>